HIERARCHY
ROOT Hips
{
  OFFSET 7.333 -26.027 -164.856
  CHANNELS 6 Xposition Yposition Zposition Zrotation Xrotation Yrotation
  JOINT LeftUpLeg
  {
    OFFSET 10.092 0.000 0.000
    CHANNELS 3 Zrotation Xrotation Yrotation
    JOINT LeftLeg
    {
      OFFSET 0.000 -38.160 -0.000
    CHANNELS 3 Zrotation Xrotation Yrotation
      JOINT LeftFoot
      {
        OFFSET -0.000 -24.040 0.000
    CHANNELS 3 Zrotation Xrotation Yrotation
        End Site
        {
          OFFSET -0.000 0.000 12.945
        }
      }
    }
  }
  JOINT RightUpLeg
  {
    OFFSET -10.092 -0.000 0.000
    CHANNELS 3 Zrotation Xrotation Yrotation
    JOINT RightLeg
    {
      OFFSET 0.000 -33.046 0.000
    CHANNELS 3 Zrotation Xrotation Yrotation
      JOINT RightFoot
      {
        OFFSET 0.000 -22.031 -0.000
    CHANNELS 3 Zrotation Xrotation Yrotation
        End Site
        {
          OFFSET 0.000 -0.000 11.863
        }
      }
    }
  }
  JOINT Spine
  {
    OFFSET -0.000 16.511 0.000
    CHANNELS 3 Zrotation Xrotation Yrotation
    JOINT LeftShoulder
    {
      OFFSET 0 16.511 0
    CHANNELS 3 Zrotation Xrotation Yrotation
      JOINT LeftArm
      {
        OFFSET 16.337 0.000 0.000
    CHANNELS 3 Zrotation Xrotation Yrotation
        JOINT LeftForeArm
        {
          OFFSET 0.000 -24.030 0.000
    CHANNELS 3 Zrotation Xrotation Yrotation
          JOINT LeftHand
          {
            OFFSET 0.000 -17.629 -0.000
    CHANNELS 3 Zrotation Xrotation Yrotation
            End Site
            {
              OFFSET 0.000 -11.753 -0.000
            }
          }
        }
      }
    }
    JOINT RightShoulder
    {
      OFFSET 0 16.511 0
    CHANNELS 3 Zrotation Xrotation Yrotation
      JOINT RightArm
      {
        OFFSET -16.337 0.000 0.000
    CHANNELS 3 Zrotation Xrotation Yrotation
        JOINT RightForeArm
        {
          OFFSET -0.000 -19.534 0.000
    CHANNELS 3 Zrotation Xrotation Yrotation
          JOINT RightHand
          {
            OFFSET 0.000 -19.514 -0.000
    CHANNELS 3 Zrotation Xrotation Yrotation
            End Site
            {
              OFFSET 0.000 -13.010 -0.000
            }
          }
        }
      }
    }
    JOINT Neck
    {
      OFFSET -0.000 16.511 0.000
    CHANNELS 3 Zrotation Xrotation Yrotation
      JOINT Head
      {
        OFFSET -0.000 12.493 -0.000
    CHANNELS 3 Zrotation Xrotation Yrotation
        End Site
        {
          OFFSET -0.000 8.328 -0.000
        }
      }
    }
  }
}
MOTION
Frames: 8
Frame Time: 0.0333333
0 0 0 -1.997010e+00 -1.055660e+00 -1.262810e+01 2.596270e-01 1.405170e+01 -6.306900e-02 3.258430e+00 -1.836910e+01 1.107460e+00 0 0 0 3.782440e+00 1.408030e+01 -9.214870e-01 1.824480e+00 -2.233960e+01 2.093390e+00 0 0 0 0 0 -4.300000e-05 0 0 0 6.355020e+01 -1.493540e+01 -1.421460e+00 1.378500e+02 -2.983800e+01 1.492730e+02 0 6.617445e-24 0 0 0 0 -5.526980e+01 -4.118990e+01 3.015700e+01 -1.229330e+02 -2.800200e+01 -1.524230e+02 0 1.654361e-24 0 -1.665550e-01 -9.226210e-01 -2.683000e-03 0 0 1.000000e-06 
0 0 0 -1.929064e+00 -1.114483e+00 -1.163740e+01 1.541347e-01 1.400077e+01 -3.770100e-02 3.458183e+00 -1.813290e+01 1.124233e+00 0 7.200000e-09 3.333333e-07 3.793583e+00 1.395767e+01 -9.160220e-01 1.615757e+00 -2.144167e+01 1.942667e+00 0 -8.051530e-10 -1.640212e-08 4.794521e-07 -1.884084e-06 -2.666667e-05 0 0 0 6.405210e+01 -1.809350e+01 -2.826943e+00 1.342630e+02 -2.972257e+01 1.462163e+02 -3.350877e-07 4.755747e-07 2.213001e-08 0 0 0 -5.751627e+01 -3.871993e+01 2.746837e+01 -1.221107e+02 -2.480260e+01 -1.553897e+02 3.333333e-07 3.930348e-07 3.967027e-08 -1.282960e-01 -9.689083e-01 -1.956667e-03 0 -6.089489e-09 3.015214e-07 
0 0 0 -1.778241e+00 -1.360594e+00 -1.171655e+01 -3.241489e-01 1.441898e+01 8.559853e-02 3.806042e+00 -1.827181e+01 1.103659e+00 0 1.166644e-08 3.877332e-07 3.319904e+00 1.450350e+01 -8.290612e-01 1.963166e+00 -2.182729e+01 1.928872e+00 0 -1.607398e-09 -9.841270e-09 8.767123e-08 -1.962321e-06 -2.073209e-05 0 0 0 6.388535e+01 -1.561548e+01 -1.656475e+00 1.286529e+02 -2.718531e+01 1.427519e+02 -2.018197e-07 2.853448e-07 2.066273e-08 0 0 0 -5.916280e+01 -3.560297e+01 2.514303e+01 -1.195033e+02 -1.806873e+01 -1.299641e+02 2.006777e-07 2.358209e-07 2.380216e-08 7.245760e-02 -1.052480e+00 1.829166e-03 0 -1.087471e-08 1.958176e-07 
0 0 0 -1.693957e+00 -1.545070e+00 -1.182005e+01 -5.910943e-01 1.472891e+01 1.569885e-01 3.963310e+00 -1.830925e+01 1.073968e+00 0 1.166644e-08 3.877332e-07 3.088624e+00 1.473913e+01 -7.845558e-01 2.073678e+00 -2.174263e+01 1.880456e+00 0 -3.596034e-09 -1.089309e-08 1.922687e-07 -1.962321e-06 -1.613209e-05 0 0 0 6.347952e+01 -1.280804e+01 -2.096412e-01 1.225205e+02 -2.450350e+01 1.385273e+02 -2.055870e-07 2.924444e-07 2.066273e-08 0 0 0 -6.011624e+01 -3.209532e+01 2.303603e+01 -1.165401e+02 -1.111633e+01 -9.947949e+01 1.935969e-07 2.374239e-07 4.076996e-08 1.421396e-01 -1.132880e+00 3.206366e-03 0 -1.087471e-08 -4.182376e-09 
0 0 0 -1.625850e+00 -1.686312e+00 -1.219747e+01 -8.181189e-01 1.484919e+01 2.169661e-01 3.989532e+00 -1.830080e+01 1.012145e+00 0 1.166644e-08 1.889138e-07 2.793548e+00 1.492475e+01 -7.259743e-01 2.331282e+00 -2.180589e+01 1.880866e+00 0 -3.110433e-09 -1.369883e-08 3.922687e-07 -1.962321e-06 -2.553209e-05 0 0 0 6.211272e+01 -7.674954e+00 2.644756e+00 1.149001e+02 -2.112794e+01 1.312101e+02 -1.160737e-08 1.157664e-07 2.432395e-08 0 0 0 -5.968228e+01 -2.745486e+01 2.108302e+01 -1.123463e+02 -3.372849e+00 -6.862829e+01 -6.403134e-09 4.331574e-08 4.076996e-08 2.439294e-01 -1.213702e+00 5.073542e-03 0 -1.087471e-08 2.067071e-08 
0 0 0 -1.526649e+00 -1.664296e+00 -1.272974e+01 -1.020872e+00 1.489957e+01 2.733416e-01 4.010847e+00 -1.853126e+01 9.706491e-01 0 1.082057e-08 1.899401e-07 2.540756e+00 1.502942e+01 -6.659732e-01 2.601464e+00 -2.201675e+01 1.966514e+00 0 -2.627342e-09 -3.857564e-09 -9.540253e-08 -1.199309e-06 -2.213209e-05 0 0 0 5.908880e+01 -1.171214e+00 6.917741e+00 1.058376e+02 -1.837958e+01 1.180476e+02 -1.055474e-08 3.042162e-08 1.691004e-08 0 0 0 -5.783930e+01 -2.217861e+01 1.927079e+01 -1.063473e+02 3.816062e+00 -4.752625e+01 -6.403134e-09 1.433245e-08 1.696780e-08 2.813499e-01 -1.206299e+00 5.649860e-03 0 -1.152534e-08 3.975785e-08 
0 0 0 -1.493675e+00 -1.544008e+00 -1.331643e+01 -1.078441e+00 1.474514e+01 2.863999e-01 3.993777e+00 -1.847410e+01 9.418284e-01 0 8.003662e-09 1.659862e-09 2.454752e+00 1.491714e+01 -6.306551e-01 2.769270e+00 -2.182118e+01 2.051782e+00 0 5.789309e-10 -3.857564e-09 1.154741e-07 -1.591941e-06 -2.939827e-06 0 0 0 5.569909e+01 5.520864e+00 1.209250e+01 9.424051e+01 -1.712154e+01 9.912313e+01 -2.357651e-08 3.042162e-08 2.294785e-08 0 0 0 -5.484848e+01 -1.715682e+01 1.786184e+01 -9.860604e+01 1.003498e+01 -1.489639e+01 -2.793353e-08 1.433245e-08 3.732670e-08 1.535687e-01 -1.176218e+00 3.627326e-03 0 -9.817955e-09 2.485309e-08 
0 0 0 -1.429187e+00 -1.377128e+00 -1.375201e+01 -1.014918e+00 1.458548e+01 2.688530e-01 3.672749e+00 -1.838425e+01 8.473391e-01 0 3.474130e-09 2.377087e-09 2.349976e+00 1.485964e+01 -5.897831e-01 2.936960e+00 -2.186795e+01 1.678193e+00 0 -5.176513e-09 -5.321925e-09 1.369883e-07 3.877241e-07 1.340000e-05 0 0 0 5.112769e+01 1.161395e+01 1.759716e+01 8.153820e+01 -1.726399e+01 7.864834e+01 -2.089873e-08 4.123635e-08 2.242763e-08 0 0 0 -5.114984e+01 -1.229632e+01 1.651717e+01 -9.006907e+01 1.386015e+01 -1.079596e+01 -2.536565e-08 7.968697e-09 3.732670e-08 1.095117e-01 -1.129851e+00 1.998716e-03 0 -4.304320e-09 3.954674e-08 
